<svg width="62" height="27" viewBox="0 0 62 27" fill="none" xmlns="http://www.w3.org/2000/svg">
<path d="M9.29628 26.6798C7.54948 26.6798 5.9702 26.3834 4.55841 25.7905C3.17054 25.1976 2.06983 24.3439 1.25625 23.2292C0.44268 22.1146 0.0239286 20.7984 0 19.2806H5.38394C5.45573 20.3004 5.81466 21.1067 6.46073 21.6996C7.13073 22.2925 8.04002 22.5889 9.1886 22.5889C10.3611 22.5889 11.2824 22.3162 11.9524 21.7708C12.6224 21.2016 12.9574 20.4664 12.9574 19.5652C12.9574 18.83 12.73 18.2253 12.2754 17.751C11.8207 17.2767 11.2465 16.9091 10.5525 16.6482C9.88253 16.3636 8.94931 16.0553 7.75288 15.7233C6.12573 15.249 4.79769 14.7866 3.76876 14.336C2.76376 13.8617 1.89036 13.1621 1.14857 12.2372C0.430715 11.2885 0.0717859 10.0316 0.0717859 8.4664C0.0717859 6.99605 0.44268 5.71542 1.18447 4.62451C1.92626 3.5336 2.96715 2.70356 4.30715 2.13439C5.64716 1.5415 7.17859 1.24506 8.90145 1.24506C11.4857 1.24506 13.5795 1.87352 15.1827 3.13044C16.8099 4.36364 17.7072 6.09486 17.8747 8.32411H12.3472C12.2993 7.47036 11.9284 6.77075 11.2345 6.2253C10.5645 5.65613 9.66717 5.37154 8.54252 5.37154C7.56145 5.37154 6.7718 5.62055 6.17359 6.11858C5.5993 6.6166 5.31216 7.33992 5.31216 8.28854C5.31216 8.95257 5.52752 9.50988 5.95823 9.96047C6.41287 10.3874 6.96323 10.7431 7.60931 11.0277C8.27931 11.2885 9.21252 11.5968 10.409 11.9526C12.0361 12.4269 13.3641 12.9012 14.3931 13.3755C15.422 13.8498 16.3074 14.5613 17.0492 15.5099C17.7909 16.4585 18.1618 17.7036 18.1618 19.2451C18.1618 20.5731 17.8149 21.8063 17.1209 22.9447C16.427 24.083 15.41 24.996 14.07 25.6838C12.73 26.3478 11.1388 26.6798 9.29628 26.6798ZM34.2912 26.4308L27.5434 18.0356V26.4308H22.5183V0.10672H27.5434V15.083L34.2194 6.72332H40.752L31.9941 16.6126L40.8238 26.4308H34.2912ZM47.2839 12.6996C44.891 11.4664 43.6946 9.55731 43.6946 6.97233C43.6946 5.6917 44.0176 4.52965 44.6637 3.48617C45.3337 2.41897 46.3267 1.57708 47.6428 0.960475C48.9828 0.320158 50.61 0 52.5243 0C54.4385 0 56.0537 0.320158 57.3698 0.960475C58.7098 1.57708 59.7028 2.41897 60.3489 3.48617C61.0189 4.52965 61.3539 5.6917 61.3539 6.97233C61.3539 8.27668 61.0309 9.42688 60.3848 10.4229C59.7387 11.3953 58.8773 12.1542 57.8005 12.6996C59.1166 13.2688 60.1455 14.0988 60.8873 15.1897C61.6291 16.2806 62 17.5731 62 19.0672C62 20.6798 61.5812 22.0909 60.7437 23.3004C59.9302 24.4862 58.8055 25.3992 57.3698 26.0395C55.9341 26.6798 54.3189 27 52.5243 27C50.7296 27 49.1144 26.6798 47.6787 26.0395C46.2669 25.3992 45.1423 24.4862 44.3048 23.3004C43.4912 22.0909 43.0844 20.6798 43.0844 19.0672C43.0844 17.5731 43.4553 16.2806 44.1971 15.1897C44.9389 14.0751 45.9678 13.2451 47.2839 12.6996ZM56.4725 7.6838C56.4725 6.52174 56.1136 5.62055 55.3957 4.98024C54.7018 4.33992 53.7446 4.01976 52.5243 4.01976C51.3278 4.01976 50.3707 4.33992 49.6528 4.98024C48.9589 5.62055 48.6119 6.5336 48.6119 7.71937C48.6119 8.78656 48.9709 9.64032 49.6887 10.2806C50.4305 10.9209 51.3757 11.2411 52.5243 11.2411C53.6728 11.2411 54.618 10.9209 55.3598 10.2806C56.1016 9.6166 56.4725 8.75099 56.4725 7.6838ZM52.5243 14.8696C51.1603 14.8696 50.0476 15.2134 49.1862 15.9012C48.3487 16.5889 47.93 17.5731 47.93 18.8538C47.93 20.0395 48.3367 21.0119 49.1503 21.7708C49.9878 22.5059 51.1125 22.8735 52.5243 22.8735C53.936 22.8735 55.0487 22.4941 55.8623 21.7352C56.6759 20.9763 57.0827 20.0158 57.0827 18.8538C57.0827 17.5968 56.6639 16.6245 55.8264 15.9368C54.9889 15.2253 53.8882 14.8696 52.5243 14.8696Z" fill="black"/>
</svg>
