<svg xmlns="http://www.w3.org/2000/svg" width="18" height="23" fill="none"><path fill="#FB0" d="M4.3 23a.72.72 0 0 1-.525-.225.72.72 0 0 1-.225-.525c0-.2.075-.375.225-.525A.72.72 0 0 1 4.3 21.5c.2 0 .375.075.525.225a.72.72 0 0 1 .225.525.72.72 0 0 1-.225.525A.72.72 0 0 1 4.3 23Zm8.5 0a.72.72 0 0 1-.525-.225.72.72 0 0 1-.225-.525c0-.2.075-.375.225-.525a.72.72 0 0 1 .525-.225c.2 0 .375.075.525.225a.72.72 0 0 1 .225.525.72.72 0 0 1-.225.525.72.72 0 0 1-.525.225Zm-9-2a4.555 4.555 0 0 1-3.65-1.8 1.407 1.407 0 0 1-.113-.225.766.766 0 0 1 .163-.75c.133-.15.317-.225.55-.225.133 0 .246.025.337.075.092.05.18.125.263.225.2.283.454.52.762.712.309.192.638.33.988.413l3.125-3.775L4.9 11.5a2.11 2.11 0 0 1-.075-.85c.033-.283.125-.55.275-.8L7.5 6H5.15l-1.9 3.05L1.55 8l2.5-4h5.7c.45 0 .813.125 1.088.375.275.25.462.483.562.7l.525 1.2c.333.8.87 1.454 1.612 1.963A4.34 4.34 0 0 0 16.05 9v2c-1.167 0-2.233-.28-3.2-.838a6.652 6.652 0 0 1-2.325-2.212l-1.8 2.875L13.05 13.5v6h.3c.483 0 .933-.108 1.35-.325a3.141 3.141 0 0 0 1.05-.875c.083-.1.17-.175.262-.225A.697.697 0 0 1 16.35 18c.217 0 .396.075.537.225a.74.74 0 0 1 .175.75 1.407 1.407 0 0 1-.112.225c-.417.55-.933.988-1.55 1.313-.617.324-1.3.487-2.05.487H3.8Zm1.85-1.5h5.4v-4.6l-3.5-2.2 1 3.3-2.9 3.5ZM12.05 4c-.55 0-1.02-.196-1.413-.587A1.926 1.926 0 0 1 10.05 2c0-.55.196-1.02.587-1.413A1.926 1.926 0 0 1 12.05 0c.55 0 1.02.196 1.412.588.392.391.588.862.588 1.412 0 .55-.196 1.02-.588 1.413A1.926 1.926 0 0 1 12.05 4Z"/></svg>